<svg width="24" height="24" viewBox="0 0 24 24" fill="none" xmlns="http://www.w3.org/2000/svg">
<rect x="0.5" y="0.5" width="23" height="23" rx="7.5" stroke="black"/>
<path d="M7.87069 5.812V8.83C7.87069 9.018 7.83669 9.19 7.76869 9.346C7.70469 9.498 7.61069 9.628 7.48669 9.736C7.36669 9.844 7.22069 9.928 7.04869 9.988C6.87669 10.044 6.68469 10.072 6.47269 10.072C6.04469 10.072 5.71269 9.966 5.47669 9.754C5.24469 9.538 5.09669 9.256 5.03269 8.908L5.88469 8.734C5.91669 8.914 5.97669 9.06 6.06469 9.172C6.15669 9.284 6.29269 9.34 6.47269 9.34C6.62469 9.34 6.74269 9.292 6.82669 9.196C6.91469 9.096 6.95869 8.944 6.95869 8.74V6.55H5.57869V5.812H7.87069ZM10.1363 10.072C9.78434 10.072 9.47834 10.014 9.21834 9.898C8.95834 9.782 8.74834 9.624 8.58834 9.424L9.11034 8.848C9.26234 9.016 9.42834 9.14 9.60834 9.22C9.79234 9.3 9.97834 9.34 10.1663 9.34C10.3823 9.34 10.5463 9.292 10.6583 9.196C10.7703 9.1 10.8263 8.962 10.8263 8.782C10.8263 8.634 10.7823 8.522 10.6943 8.446C10.6103 8.37 10.4663 8.316 10.2623 8.284L9.82434 8.212C9.44834 8.148 9.17634 8.01 9.00834 7.798C8.84034 7.582 8.75634 7.32 8.75634 7.012C8.75634 6.608 8.88834 6.296 9.15234 6.076C9.41634 5.852 9.78634 5.74 10.2623 5.74C10.5863 5.74 10.8683 5.79 11.1083 5.89C11.3483 5.99 11.5423 6.126 11.6903 6.298L11.1803 6.868C11.0683 6.744 10.9363 6.648 10.7843 6.58C10.6323 6.508 10.4603 6.472 10.2683 6.472C9.86434 6.472 9.66234 6.638 9.66234 6.97C9.66234 7.114 9.70634 7.222 9.79434 7.294C9.88634 7.366 10.0343 7.42 10.2383 7.456L10.6763 7.534C11.0163 7.594 11.2783 7.722 11.4623 7.918C11.6463 8.114 11.7383 8.378 11.7383 8.71C11.7383 8.906 11.7043 9.088 11.6363 9.256C11.5683 9.42 11.4663 9.564 11.3303 9.688C11.1943 9.808 11.0263 9.902 10.8263 9.97C10.6303 10.038 10.4003 10.072 10.1363 10.072ZM13.8 10.072C13.24 10.072 12.826 9.882 12.558 9.502C12.294 9.122 12.162 8.59 12.162 7.906C12.162 7.222 12.294 6.69 12.558 6.31C12.826 5.93 13.24 5.74 13.8 5.74C14.36 5.74 14.772 5.93 15.036 6.31C15.304 6.69 15.438 7.222 15.438 7.906C15.438 8.59 15.304 9.122 15.036 9.502C14.772 9.882 14.36 10.072 13.8 10.072ZM13.8 9.346C14.056 9.346 14.232 9.252 14.328 9.064C14.428 8.872 14.478 8.606 14.478 8.266V7.54C14.478 7.204 14.428 6.942 14.328 6.754C14.232 6.562 14.056 6.466 13.8 6.466C13.544 6.466 13.366 6.562 13.266 6.754C13.17 6.942 13.122 7.204 13.122 7.54V8.272C13.122 8.608 13.17 8.872 13.266 9.064C13.366 9.252 13.544 9.346 13.8 9.346ZM16.7977 7.216H16.7317V10H15.9637V5.812H17.0437L17.9977 8.596H18.0637V5.812H18.8317V10H17.7517L16.7977 7.216ZM4.73986 18.072C4.38786 18.072 4.08186 18.014 3.82186 17.898C3.56186 17.782 3.35186 17.624 3.19186 17.424L3.71386 16.848C3.86586 17.016 4.03186 17.14 4.21186 17.22C4.39586 17.3 4.58186 17.34 4.76986 17.34C4.98586 17.34 5.14986 17.292 5.26186 17.196C5.37386 17.1 5.42986 16.962 5.42986 16.782C5.42986 16.634 5.38586 16.522 5.29786 16.446C5.21386 16.37 5.06986 16.316 4.86586 16.284L4.42786 16.212C4.05186 16.148 3.77986 16.01 3.61186 15.798C3.44386 15.582 3.35986 15.32 3.35986 15.012C3.35986 14.608 3.49186 14.296 3.75586 14.076C4.01986 13.852 4.38986 13.74 4.86586 13.74C5.18986 13.74 5.47186 13.79 5.71186 13.89C5.95186 13.99 6.14586 14.126 6.29386 14.298L5.78386 14.868C5.67186 14.744 5.53986 14.648 5.38786 14.58C5.23586 14.508 5.06386 14.472 4.87186 14.472C4.46786 14.472 4.26586 14.638 4.26586 14.97C4.26586 15.114 4.30986 15.222 4.39786 15.294C4.48986 15.366 4.63786 15.42 4.84186 15.456L5.27986 15.534C5.61986 15.594 5.88186 15.722 6.06586 15.918C6.24986 16.114 6.34186 16.378 6.34186 16.71C6.34186 16.906 6.30786 17.088 6.23986 17.256C6.17186 17.42 6.06986 17.564 5.93386 17.688C5.79786 17.808 5.62986 17.902 5.42986 17.97C5.23386 18.038 5.00386 18.072 4.73986 18.072ZM8.64352 18C8.32352 18 8.08552 17.916 7.92952 17.748C7.77352 17.58 7.69552 17.366 7.69552 17.106V15.594H6.85552V14.904H7.40152C7.53352 14.904 7.62752 14.878 7.68352 14.826C7.73952 14.774 7.76752 14.678 7.76752 14.538V13.812H8.58352V14.904H9.78952V15.594H8.58352V17.31H9.78952V18H8.64352ZM12.0012 18.072C11.7612 18.072 11.5452 18.036 11.3532 17.964C11.1612 17.888 10.9972 17.78 10.8612 17.64C10.7292 17.5 10.6272 17.33 10.5552 17.13C10.4832 16.93 10.4472 16.704 10.4472 16.452C10.4472 16.2 10.4832 15.974 10.5552 15.774C10.6272 15.574 10.7292 15.404 10.8612 15.264C10.9972 15.124 11.1612 15.018 11.3532 14.946C11.5452 14.87 11.7612 14.832 12.0012 14.832C12.2412 14.832 12.4572 14.87 12.6492 14.946C12.8412 15.018 13.0032 15.124 13.1352 15.264C13.2712 15.404 13.3752 15.574 13.4472 15.774C13.5192 15.974 13.5552 16.2 13.5552 16.452C13.5552 16.704 13.5192 16.93 13.4472 17.13C13.3752 17.33 13.2712 17.5 13.1352 17.64C13.0032 17.78 12.8412 17.888 12.6492 17.964C12.4572 18.036 12.2412 18.072 12.0012 18.072ZM12.0012 17.412C12.2012 17.412 12.3572 17.35 12.4692 17.226C12.5812 17.102 12.6372 16.926 12.6372 16.698V16.206C12.6372 15.978 12.5812 15.802 12.4692 15.678C12.3572 15.554 12.2012 15.492 12.0012 15.492C11.8012 15.492 11.6452 15.554 11.5332 15.678C11.4212 15.802 11.3652 15.978 11.3652 16.206V16.698C11.3652 16.926 11.4212 17.102 11.5332 17.226C11.6452 17.35 11.8012 17.412 12.0012 17.412ZM14.2428 17.31H14.9568V15.594H14.2428V14.904H15.8448V15.78H15.8868C15.9148 15.668 15.9528 15.56 16.0008 15.456C16.0528 15.348 16.1168 15.254 16.1928 15.174C16.2728 15.09 16.3688 15.024 16.4808 14.976C16.5928 14.928 16.7248 14.904 16.8768 14.904H17.1708V15.72H16.5108C16.2908 15.72 16.1248 15.786 16.0128 15.918C15.9008 16.046 15.8448 16.204 15.8448 16.392V17.31H16.8648V18H14.2428V17.31ZM19.2805 18.072C18.7605 18.072 18.3665 17.928 18.0985 17.64C17.8305 17.352 17.6965 16.96 17.6965 16.464C17.6965 16.212 17.7305 15.986 17.7985 15.786C17.8705 15.582 17.9705 15.41 18.0985 15.27C18.2305 15.126 18.3885 15.018 18.5725 14.946C18.7605 14.87 18.9705 14.832 19.2025 14.832C19.4345 14.832 19.6425 14.87 19.8265 14.946C20.0105 15.018 20.1665 15.122 20.2945 15.258C20.4225 15.394 20.5205 15.56 20.5885 15.756C20.6605 15.948 20.6965 16.164 20.6965 16.404V16.668H18.5785V16.722C18.5785 16.922 18.6405 17.084 18.7645 17.208C18.8885 17.328 19.0705 17.388 19.3105 17.388C19.4945 17.388 19.6525 17.354 19.7845 17.286C19.9165 17.214 20.0305 17.12 20.1265 17.004L20.6065 17.526C20.4865 17.674 20.3185 17.802 20.1025 17.91C19.8865 18.018 19.6125 18.072 19.2805 18.072ZM19.2085 15.468C19.0165 15.468 18.8625 15.528 18.7465 15.648C18.6345 15.764 18.5785 15.922 18.5785 16.122V16.17H19.8265V16.122C19.8265 15.918 19.7705 15.758 19.6585 15.642C19.5505 15.526 19.4005 15.468 19.2085 15.468Z" fill="black"/>
</svg>
